<svg width="22" height="21" viewBox="0 0 22 21" fill="none" xmlns="http://www.w3.org/2000/svg">
<path d="M9.46356 20.0405C10.3859 20.0405 11.1336 19.2928 11.1336 18.3704C11.1336 17.4481 10.3859 16.7004 9.46356 16.7004C8.54122 16.7004 7.79352 17.4481 7.79352 18.3704C7.79352 19.2928 8.54122 20.0405 9.46356 20.0405Z" fill="#F8F4E1"/>
<path d="M17.2571 20.0405C18.1794 20.0405 18.9271 19.2928 18.9271 18.3704C18.9271 17.4481 18.1794 16.7004 17.2571 16.7004C16.3347 16.7004 15.587 17.4481 15.587 18.3704C15.587 19.2928 16.3347 20.0405 17.2571 20.0405Z" fill="#F8F4E1"/>
<path d="M12.247 11.1336H14.4737V7.80469H17.8026V5.57797H14.4737V2.26015H12.247V5.57797H8.91803V7.80469H12.247V11.1336Z" fill="#F8F4E1"/>
<path d="M8.90688 15.587H17.8138C18.038 15.5864 18.2569 15.518 18.4416 15.3909C18.6264 15.2637 18.7685 15.0837 18.8492 14.8745L22 6.68017H19.6174L17.0455 13.3603H9.65283L4.65385 1.36944C4.48435 0.96313 4.19822 0.616182 3.83161 0.372436C3.46501 0.128691 3.03437 -0.000911985 2.59413 4.83073e-06H0V2.22673H2.59413L7.88259 14.8968C7.96611 15.1001 8.10795 15.2741 8.29023 15.397C8.47251 15.5198 8.68708 15.586 8.90688 15.587Z" fill="#F8F4E1"/>
</svg>
