<svg width="25" height="22.5" viewBox="0 0 32 29" fill="none" xmlns="http://www.w3.org/2000/svg">
    <path
        d="M31.7144 7.08942C31.5672 6.87674 31.3707 6.7029 31.1416 6.58281C30.9126 6.46271 30.6578 6.39992 30.3992 6.39984H8.53257L6.68622 1.96795C6.44413 1.38433 6.03419 0.885725 5.50837 0.53537C4.98256 0.185016 4.36455 -0.00131363 3.7327 6.9714e-06H0V3.19992H3.7327L11.3229 21.4154C11.4445 21.7069 11.6496 21.9558 11.9124 22.1309C12.1752 22.306 12.4839 22.3994 12.7997 22.3994H25.5993C26.2665 22.3994 26.8633 21.985 27.0985 21.3626L31.8984 8.56298C31.9891 8.32078 32.0197 8.0602 31.9877 7.80356C31.9556 7.54692 31.8618 7.30188 31.7144 7.08942ZM24.4905 19.1995H13.8668L9.86694 9.59975H28.0905L24.4905 19.1995Z"
        fill="#333" />
    <path
        d="M13.5996 28.7992C14.9251 28.7992 15.9996 27.7247 15.9996 26.3993C15.9996 25.0739 14.9251 23.9994 13.5996 23.9994C12.2742 23.9994 11.1997 25.0739 11.1997 26.3993C11.1997 27.7247 12.2742 28.7992 13.5996 28.7992Z"
        fill="#333" />
    <path
        d="M24.7993 28.7992C26.1248 28.7992 27.1993 27.7247 27.1993 26.3993C27.1993 25.0739 26.1248 23.9994 24.7993 23.9994C23.4739 23.9994 22.3994 25.0739 22.3994 26.3993C22.3994 27.7247 23.4739 28.7992 24.7993 28.7992Z"
        fill="#333" />
</svg>